<svg width="48" height="31" viewBox="0 0 48 31" fill="none" xmlns="http://www.w3.org/2000/svg">
<path d="M4.90234 4.87988C4.90234 4.75293 4.88607 4.65202 4.85352 4.57715C4.82422 4.49902 4.78516 4.44043 4.73633 4.40137C4.69076 4.35905 4.63867 4.33138 4.58008 4.31836C4.52148 4.30534 4.46452 4.29883 4.40918 4.29883C4.19759 4.29883 4.03971 4.36068 3.93555 4.48438C3.83138 4.60807 3.7793 4.78385 3.7793 5.01172V5.70996C3.7793 5.88249 3.80859 6.00618 3.86719 6.08105C3.92904 6.15267 4.04622 6.18848 4.21875 6.18848H4.48242V8H0.400391V6.18848H0.688477C0.82194 6.18848 0.922852 6.14616 0.991211 6.06152C1.06283 5.97363 1.09863 5.86947 1.09863 5.74902V4.82129C1.09863 4.66829 1.05306 4.56576 0.961914 4.51367C0.874023 4.45833 0.773112 4.43066 0.65918 4.43066H0.400391V2.61914H3.30078L3.19824 3.96191H3.28125C3.35286 3.46061 3.57259 3.07487 3.94043 2.80469C4.30827 2.53451 4.80794 2.39941 5.43945 2.39941C5.88542 2.39941 6.24837 2.46289 6.52832 2.58984C6.80827 2.7168 7.02474 2.87793 7.17773 3.07324C7.33398 3.2653 7.43978 3.47526 7.49512 3.70312C7.55046 3.92773 7.57812 4.13932 7.57812 4.33789V5.70996C7.57812 5.88249 7.60742 6.00618 7.66602 6.08105C7.72786 6.15267 7.84505 6.18848 8.01758 6.18848H8.28125V8H4.90234V4.87988ZM11.3672 5.6123C11.3802 6.09733 11.4714 6.43262 11.6406 6.61816C11.8132 6.80046 12.0589 6.8916 12.3779 6.8916C12.4854 6.8916 12.5895 6.87695 12.6904 6.84766C12.7946 6.8151 12.8906 6.76465 12.9785 6.69629C13.0664 6.62467 13.1413 6.5319 13.2031 6.41797C13.2682 6.30078 13.3105 6.1543 13.3301 5.97852H15.1074C15.0423 6.39844 14.9219 6.75 14.7461 7.0332C14.5736 7.31641 14.3506 7.5459 14.0771 7.72168C13.8037 7.89421 13.4847 8.0179 13.1201 8.09277C12.7588 8.1709 12.3551 8.20996 11.9092 8.20996C11.4502 8.20996 11.0189 8.15137 10.6152 8.03418C10.2116 7.91699 9.85677 7.73958 9.55078 7.50195C9.24805 7.26107 9.01042 6.95996 8.83789 6.59863C8.66536 6.23405 8.5791 5.80111 8.5791 5.2998C8.5791 4.82129 8.66048 4.40137 8.82324 4.04004C8.986 3.67871 9.21387 3.3776 9.50684 3.13672C9.80306 2.89258 10.1514 2.70866 10.5518 2.58496C10.9554 2.46126 11.3981 2.39941 11.8799 2.39941C12.4723 2.39941 12.9818 2.47754 13.4082 2.63379C13.8346 2.79004 14.1829 3.00814 14.4531 3.28809C14.7233 3.56803 14.9219 3.90495 15.0488 4.29883C15.1758 4.69271 15.236 5.13053 15.2295 5.6123H11.3672ZM12.0898 3.71777C11.862 3.71777 11.6927 3.79915 11.582 3.96191C11.4746 4.12142 11.403 4.38672 11.3672 4.75781H12.7979C12.7783 4.4388 12.71 4.18652 12.5928 4.00098C12.4756 3.81217 12.3079 3.71777 12.0898 3.71777ZM19.7705 4.85059L19.9609 4.71875C20.0065 4.6862 20.0635 4.64388 20.1318 4.5918C20.2035 4.53646 20.2393 4.48275 20.2393 4.43066C20.2393 4.3623 20.1855 4.32812 20.0781 4.32812V2.61914H22.4805V4.32812C22.3926 4.32812 22.2933 4.34928 22.1826 4.3916C22.0752 4.43066 21.9661 4.47949 21.8555 4.53809C21.7448 4.59342 21.6341 4.65527 21.5234 4.72363C21.4128 4.78874 21.3151 4.85059 21.2305 4.90918L20.5518 5.3584L21.2793 5.83203C21.3477 5.87109 21.4193 5.91829 21.4941 5.97363C21.5723 6.02572 21.6585 6.07454 21.7529 6.12012C21.8506 6.16569 21.9629 6.20638 22.0898 6.24219C22.2168 6.27474 22.3633 6.29102 22.5293 6.29102V8H18.3789V6.29102C18.4668 6.29102 18.54 6.27311 18.5986 6.2373C18.6605 6.19824 18.6914 6.14941 18.6914 6.09082C18.6914 6.04199 18.6686 5.99316 18.623 5.94434C18.5807 5.89551 18.5335 5.85482 18.4814 5.82227L18.3691 5.74902L18.2715 5.82227C18.2031 5.86133 18.125 5.91829 18.0371 5.99316C17.9525 6.06478 17.9102 6.12663 17.9102 6.17871C17.9102 6.25358 17.9606 6.29102 18.0615 6.29102V8H15.708V6.29102C15.7829 6.29102 15.8691 6.26986 15.9668 6.22754C16.0677 6.18197 16.1719 6.12988 16.2793 6.07129C16.3867 6.00944 16.4925 5.94434 16.5967 5.87598C16.7041 5.80436 16.8018 5.73926 16.8896 5.68066L17.5781 5.23145L16.9189 4.79199C16.7855 4.69759 16.6162 4.59668 16.4111 4.48926C16.2093 4.38184 15.9928 4.32812 15.7617 4.32812V2.61914H19.7607V4.32812C19.6859 4.32812 19.6208 4.34603 19.5654 4.38184C19.5133 4.41439 19.4873 4.45671 19.4873 4.50879C19.4873 4.56413 19.5052 4.61296 19.541 4.65527C19.5801 4.69759 19.6322 4.74642 19.6973 4.80176L19.7705 4.85059ZM26.3721 0.807617V2.61914H27.832V4.43066H26.3721V5.92969C26.3721 6.14453 26.4014 6.32031 26.46 6.45703C26.5218 6.59375 26.6471 6.66211 26.8359 6.66211C26.9401 6.66211 27.0231 6.64258 27.085 6.60352C27.1501 6.5612 27.2005 6.50749 27.2363 6.44238C27.2754 6.37402 27.2998 6.29753 27.3096 6.21289C27.3193 6.125 27.3242 6.0306 27.3242 5.92969V5.20215H27.8857V5.98828C27.8857 6.30404 27.8516 6.59863 27.7832 6.87207C27.7181 7.14551 27.6042 7.38151 27.4414 7.58008C27.2819 7.77865 27.0638 7.93652 26.7871 8.05371C26.5104 8.1709 26.1621 8.22949 25.7422 8.22949C25.2767 8.22949 24.9056 8.17253 24.6289 8.05859C24.3522 7.94466 24.1423 7.78841 23.999 7.58984C23.8558 7.39128 23.7614 7.15527 23.7158 6.88184C23.6735 6.6084 23.6523 6.31055 23.6523 5.98828V4.43066H22.8857V2.81934C23.1299 2.81934 23.3561 2.76725 23.5645 2.66309C23.776 2.55566 23.9567 2.40918 24.1064 2.22363C24.2594 2.03483 24.3766 1.81999 24.458 1.5791C24.5426 1.33822 24.585 1.08105 24.585 0.807617H26.3721ZM0.991211 13.6191C0.935872 13.5931 0.875651 13.5557 0.810547 13.5068C0.748698 13.4548 0.691732 13.3913 0.639648 13.3164C0.587565 13.2383 0.541992 13.1504 0.50293 13.0527C0.467122 12.9518 0.449219 12.8379 0.449219 12.7109C0.449219 12.4831 0.514323 12.2861 0.644531 12.1201C0.77474 11.9541 0.955404 11.8174 1.18652 11.71C1.4209 11.6025 1.70085 11.5244 2.02637 11.4756C2.35514 11.4268 2.71973 11.4023 3.12012 11.4023C3.58561 11.4023 3.97624 11.43 4.29199 11.4854C4.611 11.5407 4.86816 11.6204 5.06348 11.7246C5.26204 11.8288 5.40202 11.9541 5.4834 12.1006C5.56803 12.2471 5.61035 12.4098 5.61035 12.5889C5.61035 12.6963 5.59245 12.8005 5.55664 12.9014C5.52409 12.999 5.46712 13.0885 5.38574 13.1699C5.30762 13.2513 5.20345 13.3164 5.07324 13.3652C4.94303 13.4141 4.78516 13.4385 4.59961 13.4385C4.26107 13.4385 4.01042 13.3587 3.84766 13.1992C3.68815 13.0397 3.6084 12.8428 3.6084 12.6084C3.6084 12.4749 3.64421 12.3643 3.71582 12.2764C3.79069 12.1852 3.87207 12.1234 3.95996 12.0908L3.90137 12.0518C3.72559 12.0518 3.58236 12.0745 3.47168 12.1201C3.36426 12.1657 3.27962 12.221 3.21777 12.2861C3.15918 12.348 3.12012 12.4196 3.10059 12.501C3.08105 12.5791 3.07129 12.6556 3.07129 12.7305C3.07129 12.8379 3.09245 12.9453 3.13477 13.0527C3.17708 13.1569 3.2487 13.2513 3.34961 13.3359C3.45052 13.4173 3.58398 13.4857 3.75 13.541C3.91602 13.5931 4.12272 13.6191 4.37012 13.6191H4.91211V15.4307H3.80859V16.6611C3.80859 16.8792 3.8623 17.0225 3.96973 17.0908C4.07715 17.1559 4.21387 17.1885 4.37988 17.1885H4.71191V19H0.400391V17.1885H0.59082C0.763346 17.1885 0.890299 17.1348 0.97168 17.0273C1.05632 16.9167 1.09863 16.7979 1.09863 16.6709V15.4307H0.200195V13.6191H0.991211ZM8.12012 14.2979C7.9541 14.2979 7.81087 14.3109 7.69043 14.3369C7.57324 14.3597 7.47233 14.3874 7.3877 14.4199C7.30306 14.4525 7.23307 14.4899 7.17773 14.5322C7.1224 14.5713 7.07357 14.6071 7.03125 14.6396L7.08008 14.6885C7.14193 14.6559 7.20866 14.6234 7.28027 14.5908C7.35514 14.5583 7.44954 14.542 7.56348 14.542C7.75553 14.542 7.92155 14.6055 8.06152 14.7324C8.2015 14.8561 8.27148 15.0547 8.27148 15.3281C8.27148 15.5885 8.16406 15.7985 7.94922 15.958C7.73763 16.1143 7.4528 16.1924 7.09473 16.1924C6.75293 16.1924 6.47949 16.0947 6.27441 15.8994C6.07259 15.7008 5.97168 15.4209 5.97168 15.0596C5.97168 14.861 6.02702 14.6641 6.1377 14.4688C6.24837 14.2702 6.41927 14.0928 6.65039 13.9365C6.88477 13.7803 7.18099 13.6517 7.53906 13.5508C7.90039 13.4499 8.33496 13.3994 8.84277 13.3994C9.44824 13.3994 9.94303 13.4564 10.3271 13.5703C10.7113 13.6842 11.0091 13.8307 11.2207 14.0098C11.4355 14.1888 11.582 14.3923 11.6602 14.6201C11.7415 14.848 11.7822 15.0775 11.7822 15.3086V17.2178C11.7822 17.514 11.792 17.7158 11.8115 17.8232C11.8311 17.9274 11.9043 17.9795 12.0312 17.9795C12.1322 17.9795 12.2021 17.9323 12.2412 17.8379C12.2835 17.7402 12.3047 17.5742 12.3047 17.3398V16.7295H12.8613V17.3496C12.8613 17.6426 12.8369 17.903 12.7881 18.1309C12.7393 18.3555 12.6465 18.5492 12.5098 18.7119C12.373 18.8714 12.1875 18.9919 11.9531 19.0732C11.7188 19.1579 11.4193 19.2002 11.0547 19.2002C10.7259 19.2002 10.4525 19.1644 10.2344 19.0928C10.0195 19.0244 9.84863 18.9382 9.72168 18.834C9.59473 18.7298 9.50358 18.6224 9.44824 18.5117C9.39616 18.3978 9.37012 18.2969 9.37012 18.209H9.29199C9.27246 18.3424 9.21549 18.4694 9.12109 18.5898C9.02995 18.7103 8.90137 18.8177 8.73535 18.9121C8.57259 19.0033 8.37565 19.0765 8.14453 19.1318C7.91667 19.1904 7.65625 19.2197 7.36328 19.2197C7.08333 19.2197 6.8278 19.1921 6.59668 19.1367C6.36882 19.0846 6.1735 19.0016 6.01074 18.8877C5.85124 18.7705 5.72591 18.6208 5.63477 18.4385C5.54688 18.2529 5.50293 18.0332 5.50293 17.7793C5.50293 17.4668 5.59082 17.221 5.7666 17.042C5.94238 16.8597 6.16374 16.7165 6.43066 16.6123C6.69759 16.5049 6.9873 16.4186 7.2998 16.3535C7.61556 16.2852 7.9069 16.2038 8.17383 16.1094C8.44076 16.015 8.66211 15.8929 8.83789 15.7432C9.01367 15.5934 9.10156 15.3818 9.10156 15.1084C9.10156 14.8643 9.02507 14.6689 8.87207 14.5225C8.71908 14.3727 8.46842 14.2979 8.12012 14.2979ZM9.10156 16.4121C9.02995 16.5163 8.94043 16.6009 8.83301 16.666C8.72559 16.7279 8.62142 16.7897 8.52051 16.8516C8.42285 16.9102 8.33659 16.9818 8.26172 17.0664C8.1901 17.1478 8.1543 17.2585 8.1543 17.3984C8.1543 17.5059 8.18359 17.6035 8.24219 17.6914C8.30078 17.776 8.41471 17.8184 8.58398 17.8184C8.73698 17.8184 8.86068 17.7598 8.95508 17.6426C9.05273 17.5221 9.10156 17.3545 9.10156 17.1396V16.4121ZM18.7256 15.4014H17.3828C17.2884 15.167 17.1419 14.9814 16.9434 14.8447C16.7448 14.708 16.5381 14.6396 16.3232 14.6396C16.1768 14.6396 16.0596 14.6673 15.9717 14.7227C15.887 14.7747 15.8447 14.8545 15.8447 14.9619C15.8447 15.0954 15.9196 15.1963 16.0693 15.2646C16.2191 15.3298 16.4062 15.3883 16.6309 15.4404C16.8587 15.4925 17.1045 15.556 17.3682 15.6309C17.6318 15.7025 17.876 15.8066 18.1006 15.9434C18.3285 16.0801 18.5173 16.264 18.667 16.4951C18.8167 16.7262 18.8916 17.0306 18.8916 17.4082C18.8916 17.7012 18.8265 17.9567 18.6963 18.1748C18.5661 18.3929 18.387 18.5719 18.1592 18.7119C17.9346 18.8519 17.6693 18.9561 17.3633 19.0244C17.0573 19.096 16.7269 19.1318 16.3721 19.1318C16.027 19.1318 15.6999 19.0977 15.3906 19.0293C15.0846 18.9642 14.7917 18.8519 14.5117 18.6924L14.4629 19.0293H13.1738V17.0713H14.5117C14.6387 17.3317 14.7982 17.5335 14.9902 17.6768C15.1855 17.82 15.4004 17.8916 15.6348 17.8916C15.8138 17.8916 15.9408 17.859 16.0156 17.7939C16.0938 17.7256 16.1328 17.6507 16.1328 17.5693C16.1328 17.4359 16.0579 17.3333 15.9082 17.2617C15.7585 17.1868 15.5729 17.1217 15.3516 17.0664C15.1335 17.0078 14.8926 16.9443 14.6289 16.876C14.3652 16.8044 14.1227 16.7018 13.9014 16.5684C13.6833 16.4349 13.4993 16.2559 13.3496 16.0312C13.1999 15.8034 13.125 15.5055 13.125 15.1377C13.125 14.874 13.1836 14.6331 13.3008 14.415C13.4212 14.1969 13.5921 14.013 13.8135 13.8633C14.0348 13.7135 14.2952 13.5996 14.5947 13.5215C14.8942 13.4401 15.223 13.3994 15.5811 13.3994C15.9814 13.3994 16.3411 13.445 16.6602 13.5361C16.9824 13.624 17.2233 13.7217 17.3828 13.8291L17.4316 13.4824H18.7256V15.4014ZM24.668 13.3994C25.0977 13.3994 25.446 13.4629 25.7129 13.5898C25.9831 13.7168 26.193 13.8779 26.3428 14.0732C26.4958 14.2653 26.5999 14.4753 26.6553 14.7031C26.7106 14.9277 26.7383 15.1393 26.7383 15.3379V16.71C26.7383 16.8825 26.7676 17.0062 26.8262 17.0811C26.888 17.1527 27.0052 17.1885 27.1777 17.1885H27.4414V19H24.0625V15.8799C24.0625 15.7529 24.0462 15.652 24.0137 15.5771C23.9844 15.499 23.9453 15.4404 23.8965 15.4014C23.8509 15.359 23.7988 15.3314 23.7402 15.3184C23.6816 15.3053 23.6247 15.2988 23.5693 15.2988C23.3577 15.2988 23.1999 15.3607 23.0957 15.4844C22.9915 15.6081 22.9395 15.7839 22.9395 16.0117V16.71C22.9395 16.8825 22.9688 17.0062 23.0273 17.0811C23.0892 17.1527 23.2064 17.1885 23.3789 17.1885H23.7402V19H19.5605V17.1885H19.8486C19.9821 17.1885 20.083 17.1462 20.1514 17.0615C20.223 16.9736 20.2588 16.8695 20.2588 16.749L20.249 14.1709C20.249 13.9821 20.1888 13.8438 20.0684 13.7559C19.9512 13.6647 19.8145 13.6191 19.6582 13.6191H19.5605V11.8076H22.9395V13.6191C22.9395 13.681 22.9199 13.7884 22.8809 13.9414C22.8418 14.0944 22.7686 14.2474 22.6611 14.4004L22.7588 14.4492C22.9346 14.1302 23.1706 13.8763 23.4668 13.6875C23.763 13.4954 24.1634 13.3994 24.668 13.3994ZM31.3477 13.6191V16.6611C31.3477 16.8792 31.4014 17.0225 31.5088 17.0908C31.6162 17.1559 31.7529 17.1885 31.9189 17.1885H32.0508V19H27.9395V17.1885H28.1299C28.3024 17.1885 28.4294 17.1348 28.5107 17.0273C28.5954 16.9167 28.6377 16.7979 28.6377 16.6709V15.9824C28.6377 15.7936 28.5775 15.6553 28.457 15.5674C28.3398 15.4762 28.2031 15.4307 28.0469 15.4307H27.9395V13.6191H31.3477ZM28.5596 12.418C28.5596 12.138 28.6654 11.8988 28.877 11.7002C29.0918 11.5016 29.3962 11.4023 29.79 11.4023C30.1904 11.4023 30.498 11.5016 30.7129 11.7002C30.931 11.8988 31.04 12.138 31.04 12.418C31.04 12.7044 30.931 12.9469 30.7129 13.1455C30.498 13.3408 30.1904 13.4385 29.79 13.4385C29.3962 13.4385 29.0918 13.3408 28.877 13.1455C28.6654 12.9469 28.5596 12.7044 28.5596 12.418ZM32.3486 16.2998C32.3486 15.8213 32.4316 15.4014 32.5977 15.04C32.7637 14.6787 32.9997 14.3776 33.3057 14.1367C33.6149 13.8926 33.986 13.7087 34.4189 13.585C34.8519 13.4613 35.3353 13.3994 35.8691 13.3994C36.403 13.3994 36.8864 13.4613 37.3193 13.585C37.7523 13.7087 38.1217 13.8926 38.4277 14.1367C38.7337 14.3776 38.9697 14.6787 39.1357 15.04C39.305 15.4014 39.3896 15.8213 39.3896 16.2998C39.3896 16.7718 39.305 17.1901 39.1357 17.5547C38.9697 17.9193 38.7337 18.2253 38.4277 18.4727C38.1217 18.7168 37.7523 18.9007 37.3193 19.0244C36.8864 19.1481 36.403 19.21 35.8691 19.21C35.3353 19.21 34.8519 19.1481 34.4189 19.0244C33.986 18.9007 33.6149 18.7168 33.3057 18.4727C32.9997 18.2253 32.7637 17.9193 32.5977 17.5547C32.4316 17.1901 32.3486 16.7718 32.3486 16.2998ZM35.127 16.2998C35.127 16.5732 35.1383 16.806 35.1611 16.998C35.1872 17.1868 35.2279 17.3398 35.2832 17.457C35.3385 17.571 35.4134 17.6556 35.5078 17.7109C35.6022 17.763 35.7227 17.7891 35.8691 17.7891C36.0156 17.7891 36.1344 17.763 36.2256 17.7109C36.32 17.6556 36.3949 17.571 36.4502 17.457C36.5088 17.3398 36.5495 17.1868 36.5723 16.998C36.5951 16.806 36.6064 16.5732 36.6064 16.2998C36.6064 15.7529 36.5544 15.3704 36.4502 15.1523C36.3493 14.931 36.1556 14.8203 35.8691 14.8203C35.7227 14.8203 35.6022 14.8464 35.5078 14.8984C35.4134 14.9473 35.3385 15.0303 35.2832 15.1475C35.2279 15.2614 35.1872 15.4144 35.1611 15.6064C35.1383 15.7952 35.127 16.0264 35.127 16.2998ZM44.4922 15.8799C44.4922 15.7529 44.4759 15.652 44.4434 15.5771C44.4141 15.499 44.375 15.4404 44.3262 15.4014C44.2806 15.359 44.2285 15.3314 44.1699 15.3184C44.1113 15.3053 44.0544 15.2988 43.999 15.2988C43.7874 15.2988 43.6296 15.3607 43.5254 15.4844C43.4212 15.6081 43.3691 15.7839 43.3691 16.0117V16.71C43.3691 16.8825 43.3984 17.0062 43.457 17.0811C43.5189 17.1527 43.6361 17.1885 43.8086 17.1885H44.0723V19H39.9902V17.1885H40.2783C40.4118 17.1885 40.5127 17.1462 40.5811 17.0615C40.6527 16.9736 40.6885 16.8695 40.6885 16.749V15.8213C40.6885 15.6683 40.6429 15.5658 40.5518 15.5137C40.4639 15.4583 40.363 15.4307 40.249 15.4307H39.9902V13.6191H42.8906L42.7881 14.9619H42.8711C42.9427 14.4606 43.1624 14.0749 43.5303 13.8047C43.8981 13.5345 44.3978 13.3994 45.0293 13.3994C45.4753 13.3994 45.8382 13.4629 46.1182 13.5898C46.3981 13.7168 46.6146 13.8779 46.7676 14.0732C46.9238 14.2653 47.0296 14.4753 47.085 14.7031C47.1403 14.9277 47.168 15.1393 47.168 15.3379V16.71C47.168 16.8825 47.1973 17.0062 47.2559 17.0811C47.3177 17.1527 47.4349 17.1885 47.6074 17.1885H47.8711V19H44.4922V15.8799ZM3.30078 24.6191L3.21777 25.9619H3.30078C3.41471 25.4476 3.60352 25.0586 3.86719 24.7949C4.13411 24.5312 4.47917 24.3994 4.90234 24.3994C5.15299 24.3994 5.36784 24.4401 5.54688 24.5215C5.72917 24.5996 5.87565 24.7054 5.98633 24.8389C6.09701 24.9723 6.17676 25.127 6.22559 25.3027C6.27441 25.4753 6.29883 25.6543 6.29883 25.8398C6.29883 25.9928 6.27604 26.1442 6.23047 26.2939C6.1849 26.4437 6.11165 26.5788 6.01074 26.6992C5.90983 26.8197 5.77962 26.9173 5.62012 26.9922C5.46061 27.0638 5.26367 27.0996 5.0293 27.0996C4.70378 27.0996 4.44661 27.0166 4.25781 26.8506C4.07227 26.6846 3.97949 26.4844 3.97949 26.25C3.97949 26.1361 3.99251 26.04 4.01855 25.9619C4.0446 25.8805 4.07064 25.8154 4.09668 25.7666C4.12598 25.7145 4.14551 25.6771 4.15527 25.6543C4.16504 25.6315 4.15365 25.6201 4.12109 25.6201C4.05273 25.6201 3.97786 25.6982 3.89648 25.8545C3.81836 26.0107 3.7793 26.2565 3.7793 26.5918V27.71C3.7793 27.8825 3.80859 28.0062 3.86719 28.0811C3.92904 28.1527 4.04622 28.1885 4.21875 28.1885H4.51172V30H0.400391V28.1885H0.688477C0.82194 28.1885 0.922852 28.1462 0.991211 28.0615C1.06283 27.9736 1.09863 27.8695 1.09863 27.749V26.8213C1.09863 26.6683 1.05306 26.5658 0.961914 26.5137C0.874023 26.4583 0.773112 26.4307 0.65918 26.4307H0.400391V24.6191H3.30078ZM9.36523 27.6123C9.37826 28.0973 9.4694 28.4326 9.63867 28.6182C9.8112 28.8005 10.057 28.8916 10.376 28.8916C10.4834 28.8916 10.5876 28.877 10.6885 28.8477C10.7926 28.8151 10.8887 28.7646 10.9766 28.6963C11.0645 28.6247 11.1393 28.5319 11.2012 28.418C11.2663 28.3008 11.3086 28.1543 11.3281 27.9785H13.1055C13.0404 28.3984 12.9199 28.75 12.7441 29.0332C12.5716 29.3164 12.3486 29.5459 12.0752 29.7217C11.8018 29.8942 11.4827 30.0179 11.1182 30.0928C10.7568 30.1709 10.3532 30.21 9.90723 30.21C9.44824 30.21 9.01693 30.1514 8.61328 30.0342C8.20964 29.917 7.85482 29.7396 7.54883 29.502C7.24609 29.2611 7.00846 28.96 6.83594 28.5986C6.66341 28.234 6.57715 27.8011 6.57715 27.2998C6.57715 26.8213 6.65853 26.4014 6.82129 26.04C6.98405 25.6787 7.21191 25.3776 7.50488 25.1367C7.80111 24.8926 8.14941 24.7087 8.5498 24.585C8.95345 24.4613 9.39616 24.3994 9.87793 24.3994C10.4704 24.3994 10.9798 24.4775 11.4062 24.6338C11.8327 24.79 12.181 25.0081 12.4512 25.2881C12.7214 25.568 12.9199 25.9049 13.0469 26.2988C13.1738 26.6927 13.234 27.1305 13.2275 27.6123H9.36523ZM10.0879 25.7178C9.86003 25.7178 9.69076 25.7992 9.58008 25.9619C9.47266 26.1214 9.40104 26.3867 9.36523 26.7578H10.7959C10.7764 26.4388 10.708 26.1865 10.5908 26.001C10.4736 25.8122 10.306 25.7178 10.0879 25.7178ZM17.0557 22.8076V24.6191H18.5156V26.4307H17.0557V27.9297C17.0557 28.1445 17.085 28.3203 17.1436 28.457C17.2054 28.5938 17.3307 28.6621 17.5195 28.6621C17.6237 28.6621 17.7067 28.6426 17.7686 28.6035C17.8337 28.5612 17.8841 28.5075 17.9199 28.4424C17.959 28.374 17.9834 28.2975 17.9932 28.2129C18.0029 28.125 18.0078 28.0306 18.0078 27.9297V27.2021H18.5693V27.9883C18.5693 28.304 18.5352 28.5986 18.4668 28.8721C18.4017 29.1455 18.2878 29.3815 18.125 29.5801C17.9655 29.7786 17.7474 29.9365 17.4707 30.0537C17.194 30.1709 16.8457 30.2295 16.4258 30.2295C15.9603 30.2295 15.5892 30.1725 15.3125 30.0586C15.0358 29.9447 14.8258 29.7884 14.6826 29.5898C14.5394 29.3913 14.445 29.1553 14.3994 28.8818C14.3571 28.6084 14.3359 28.3105 14.3359 27.9883V26.4307H13.5693V24.8193C13.8135 24.8193 14.0397 24.7673 14.248 24.6631C14.4596 24.5557 14.6403 24.4092 14.79 24.2236C14.943 24.0348 15.0602 23.82 15.1416 23.5791C15.2262 23.3382 15.2686 23.0811 15.2686 22.8076H17.0557ZM21.4795 25.2979C21.3135 25.2979 21.1702 25.3109 21.0498 25.3369C20.9326 25.3597 20.8317 25.3874 20.7471 25.4199C20.6624 25.4525 20.5924 25.4899 20.5371 25.5322C20.4818 25.5713 20.4329 25.6071 20.3906 25.6396L20.4395 25.6885C20.5013 25.6559 20.568 25.6234 20.6396 25.5908C20.7145 25.5583 20.8089 25.542 20.9229 25.542C21.1149 25.542 21.2809 25.6055 21.4209 25.7324C21.5609 25.8561 21.6309 26.0547 21.6309 26.3281C21.6309 26.5885 21.5234 26.7985 21.3086 26.958C21.097 27.1143 20.8122 27.1924 20.4541 27.1924C20.1123 27.1924 19.8389 27.0947 19.6338 26.8994C19.432 26.7008 19.3311 26.4209 19.3311 26.0596C19.3311 25.861 19.3864 25.6641 19.4971 25.4688C19.6077 25.2702 19.7786 25.0928 20.0098 24.9365C20.2441 24.7803 20.5404 24.6517 20.8984 24.5508C21.2598 24.4499 21.6943 24.3994 22.2021 24.3994C22.8076 24.3994 23.3024 24.4564 23.6865 24.5703C24.0706 24.6842 24.3685 24.8307 24.5801 25.0098C24.7949 25.1888 24.9414 25.3923 25.0195 25.6201C25.1009 25.848 25.1416 26.0775 25.1416 26.3086V28.2178C25.1416 28.514 25.1514 28.7158 25.1709 28.8232C25.1904 28.9274 25.2637 28.9795 25.3906 28.9795C25.4915 28.9795 25.5615 28.9323 25.6006 28.8379C25.6429 28.7402 25.6641 28.5742 25.6641 28.3398V27.7295H26.2207V28.3496C26.2207 28.6426 26.1963 28.903 26.1475 29.1309C26.0986 29.3555 26.0059 29.5492 25.8691 29.7119C25.7324 29.8714 25.5469 29.9919 25.3125 30.0732C25.0781 30.1579 24.7786 30.2002 24.4141 30.2002C24.0853 30.2002 23.8118 30.1644 23.5938 30.0928C23.3789 30.0244 23.208 29.9382 23.0811 29.834C22.9541 29.7298 22.863 29.6224 22.8076 29.5117C22.7555 29.3978 22.7295 29.2969 22.7295 29.209H22.6514C22.6318 29.3424 22.5749 29.4694 22.4805 29.5898C22.3893 29.7103 22.2607 29.8177 22.0947 29.9121C21.932 30.0033 21.735 30.0765 21.5039 30.1318C21.276 30.1904 21.0156 30.2197 20.7227 30.2197C20.4427 30.2197 20.1872 30.1921 19.9561 30.1367C19.7282 30.0846 19.5329 30.0016 19.3701 29.8877C19.2106 29.7705 19.0853 29.6208 18.9941 29.4385C18.9062 29.2529 18.8623 29.0332 18.8623 28.7793C18.8623 28.4668 18.9502 28.221 19.126 28.042C19.3018 27.8597 19.5231 27.7165 19.79 27.6123C20.057 27.5049 20.3467 27.4186 20.6592 27.3535C20.9749 27.2852 21.2663 27.2038 21.5332 27.1094C21.8001 27.015 22.0215 26.8929 22.1973 26.7432C22.373 26.5934 22.4609 26.3818 22.4609 26.1084C22.4609 25.8643 22.3844 25.6689 22.2314 25.5225C22.0785 25.3727 21.8278 25.2979 21.4795 25.2979ZM22.4609 27.4121C22.3893 27.5163 22.2998 27.6009 22.1924 27.666C22.085 27.7279 21.9808 27.7897 21.8799 27.8516C21.7822 27.9102 21.696 27.9818 21.6211 28.0664C21.5495 28.1478 21.5137 28.2585 21.5137 28.3984C21.5137 28.5059 21.543 28.6035 21.6016 28.6914C21.6602 28.776 21.7741 28.8184 21.9434 28.8184C22.0964 28.8184 22.2201 28.7598 22.3145 28.6426C22.4121 28.5221 22.4609 28.3545 22.4609 28.1396V27.4121ZM29.9512 24.6191V27.6611C29.9512 27.8792 30.0049 28.0225 30.1123 28.0908C30.2197 28.1559 30.3564 28.1885 30.5225 28.1885H30.6543V30H26.543V28.1885H26.7334C26.9059 28.1885 27.0329 28.1348 27.1143 28.0273C27.1989 27.9167 27.2412 27.7979 27.2412 27.6709V26.9824C27.2412 26.7936 27.181 26.6553 27.0605 26.5674C26.9434 26.4762 26.8066 26.4307 26.6504 26.4307H26.543V24.6191H29.9512ZM27.1631 23.418C27.1631 23.138 27.2689 22.8988 27.4805 22.7002C27.6953 22.5016 27.9997 22.4023 28.3936 22.4023C28.7939 22.4023 29.1016 22.5016 29.3164 22.7002C29.5345 22.8988 29.6436 23.138 29.6436 23.418C29.6436 23.7044 29.5345 23.9469 29.3164 24.1455C29.1016 24.3408 28.7939 24.4385 28.3936 24.4385C27.9997 24.4385 27.6953 24.3408 27.4805 24.1455C27.2689 23.9469 27.1631 23.7044 27.1631 23.418ZM34.5605 22.8076V27.6611C34.5605 27.8792 34.6143 28.0225 34.7217 28.0908C34.8291 28.1559 34.9658 28.1885 35.1318 28.1885H35.2637V30H31.1523V28.1885H31.3428C31.5153 28.1885 31.6423 28.1348 31.7236 28.0273C31.8083 27.9167 31.8506 27.7979 31.8506 27.6709V25.1709C31.8506 24.9821 31.7904 24.8438 31.6699 24.7559C31.5527 24.6647 31.416 24.6191 31.2598 24.6191H31.1523V22.8076H34.5605Z" fill="white"/>
</svg>
